<mxfile host="app.diagrams.net" modified="2020-12-22T12:26:46.923Z" agent="5.0 (Windows NT 10.0; Win64; x64) AppleWebKit/537.36 (KHTML, like Gecko) Chrome/86.0.4240.198 Safari/537.36 OPR/72.0.3815.454" etag="xmINczgGISkHvb5h_5-5" version="14.1.1" type="github">
  <diagram id="bbgK0qtKgsVvyu-X3pZX" name="Page-1">
    <mxGraphModel dx="1381" dy="764" grid="1" gridSize="10" guides="1" tooltips="1" connect="1" arrows="1" fold="1" page="1" pageScale="1" pageWidth="827" pageHeight="1169" math="0" shadow="0">
      <root>
        <mxCell id="0" />
        <mxCell id="1" parent="0" />
        <mxCell id="DdCJcNcYymwY5NFWZ9U9-6" style="edgeStyle=orthogonalEdgeStyle;rounded=0;orthogonalLoop=1;jettySize=auto;html=1;exitX=1;exitY=0;exitDx=0;exitDy=15;exitPerimeter=0;fontFamily=Verdana;" edge="1" parent="1" source="DdCJcNcYymwY5NFWZ9U9-1" target="DdCJcNcYymwY5NFWZ9U9-16">
          <mxGeometry relative="1" as="geometry">
            <mxPoint x="680" y="280" as="targetPoint" />
          </mxGeometry>
        </mxCell>
        <mxCell id="DdCJcNcYymwY5NFWZ9U9-7" style="edgeStyle=orthogonalEdgeStyle;rounded=0;orthogonalLoop=1;jettySize=auto;html=1;exitX=0;exitY=0;exitDx=0;exitDy=15;exitPerimeter=0;fontFamily=Verdana;" edge="1" parent="1" source="DdCJcNcYymwY5NFWZ9U9-1" target="DdCJcNcYymwY5NFWZ9U9-14">
          <mxGeometry relative="1" as="geometry">
            <mxPoint x="190" y="280" as="targetPoint" />
          </mxGeometry>
        </mxCell>
        <mxCell id="DdCJcNcYymwY5NFWZ9U9-8" style="edgeStyle=orthogonalEdgeStyle;rounded=0;orthogonalLoop=1;jettySize=auto;html=1;exitX=0.5;exitY=1;exitDx=0;exitDy=0;exitPerimeter=0;fontFamily=Verdana;" edge="1" parent="1" source="DdCJcNcYymwY5NFWZ9U9-1" target="DdCJcNcYymwY5NFWZ9U9-12">
          <mxGeometry relative="1" as="geometry">
            <mxPoint x="430" y="540" as="targetPoint" />
          </mxGeometry>
        </mxCell>
        <mxCell id="DdCJcNcYymwY5NFWZ9U9-9" style="edgeStyle=orthogonalEdgeStyle;rounded=0;orthogonalLoop=1;jettySize=auto;html=1;exitX=0;exitY=1;exitDx=0;exitDy=-15;exitPerimeter=0;fontFamily=Verdana;" edge="1" parent="1" source="DdCJcNcYymwY5NFWZ9U9-1" target="DdCJcNcYymwY5NFWZ9U9-13">
          <mxGeometry relative="1" as="geometry">
            <mxPoint x="190" y="490" as="targetPoint" />
          </mxGeometry>
        </mxCell>
        <mxCell id="DdCJcNcYymwY5NFWZ9U9-10" style="edgeStyle=orthogonalEdgeStyle;rounded=0;orthogonalLoop=1;jettySize=auto;html=1;exitX=1;exitY=1;exitDx=0;exitDy=-15;exitPerimeter=0;fontFamily=Verdana;" edge="1" parent="1" source="DdCJcNcYymwY5NFWZ9U9-1" target="DdCJcNcYymwY5NFWZ9U9-11">
          <mxGeometry relative="1" as="geometry">
            <mxPoint x="680" y="490" as="targetPoint" />
          </mxGeometry>
        </mxCell>
        <mxCell id="DdCJcNcYymwY5NFWZ9U9-1" value="" style="shape=cylinder3;whiteSpace=wrap;html=1;boundedLbl=1;backgroundOutline=1;size=15;" vertex="1" parent="1">
          <mxGeometry x="350" y="340" width="160" height="100" as="geometry" />
        </mxCell>
        <mxCell id="DdCJcNcYymwY5NFWZ9U9-2" value="Wi-Fi (TP-LINK)&lt;br&gt;&lt;span style=&quot;color: rgb(54 , 68 , 75) ; font-family: &amp;#34;arial&amp;#34; , &amp;#34;helvetica&amp;#34; , &amp;#34;geneva&amp;#34; , &amp;#34;swiss&amp;#34; , , sans-serif ; text-align: left ; background-color: rgb(255 , 255 , 255)&quot;&gt;B0:BE:76:7D:B9:0C&lt;br&gt;&lt;/span&gt;&lt;span style=&quot;color: rgb(54 , 68 , 75) ; font-family: &amp;#34;arial&amp;#34; , &amp;#34;helvetica&amp;#34; , &amp;#34;geneva&amp;#34; , &amp;#34;swiss&amp;#34; , , sans-serif ; text-align: left ; background-color: rgb(255 , 255 , 255)&quot;&gt;93.73.243.39&lt;/span&gt;&lt;span style=&quot;color: rgb(54 , 68 , 75) ; font-family: &amp;#34;arial&amp;#34; , &amp;#34;helvetica&amp;#34; , &amp;#34;geneva&amp;#34; , &amp;#34;swiss&amp;#34; , , sans-serif ; text-align: left ; background-color: rgb(255 , 255 , 255)&quot;&gt;&lt;br&gt;&lt;/span&gt;" style="text;html=1;strokeColor=none;fillColor=none;align=center;verticalAlign=middle;whiteSpace=wrap;rounded=0;fontFamily=Verdana;" vertex="1" parent="1">
          <mxGeometry x="360" y="370" width="140" height="60" as="geometry" />
        </mxCell>
        <mxCell id="DdCJcNcYymwY5NFWZ9U9-3" value="" style="endArrow=classic;html=1;fontFamily=Verdana;" edge="1" parent="1" target="DdCJcNcYymwY5NFWZ9U9-15">
          <mxGeometry width="50" height="50" relative="1" as="geometry">
            <mxPoint x="430" y="350" as="sourcePoint" />
            <mxPoint x="430" y="220" as="targetPoint" />
          </mxGeometry>
        </mxCell>
        <mxCell id="DdCJcNcYymwY5NFWZ9U9-11" value="" style="rounded=1;whiteSpace=wrap;html=1;" vertex="1" parent="1">
          <mxGeometry x="620" y="460" width="120" height="60" as="geometry" />
        </mxCell>
        <mxCell id="DdCJcNcYymwY5NFWZ9U9-12" value="" style="rounded=1;whiteSpace=wrap;html=1;" vertex="1" parent="1">
          <mxGeometry x="370" y="510" width="120" height="60" as="geometry" />
        </mxCell>
        <mxCell id="DdCJcNcYymwY5NFWZ9U9-13" value="" style="rounded=1;whiteSpace=wrap;html=1;" vertex="1" parent="1">
          <mxGeometry x="130" y="460" width="120" height="60" as="geometry" />
        </mxCell>
        <mxCell id="DdCJcNcYymwY5NFWZ9U9-14" value="" style="rounded=1;whiteSpace=wrap;html=1;" vertex="1" parent="1">
          <mxGeometry x="130" y="250" width="120" height="60" as="geometry" />
        </mxCell>
        <mxCell id="DdCJcNcYymwY5NFWZ9U9-15" value="" style="rounded=1;whiteSpace=wrap;html=1;" vertex="1" parent="1">
          <mxGeometry x="370" y="190" width="120" height="60" as="geometry" />
        </mxCell>
        <mxCell id="DdCJcNcYymwY5NFWZ9U9-16" value="" style="rounded=1;whiteSpace=wrap;html=1;" vertex="1" parent="1">
          <mxGeometry x="620" y="250" width="120" height="60" as="geometry" />
        </mxCell>
        <mxCell id="DdCJcNcYymwY5NFWZ9U9-17" value="ПК 1&lt;br&gt;&lt;span style=&quot;color: rgb(54 , 68 , 75) ; font-family: &amp;#34;arial&amp;#34; , &amp;#34;helvetica&amp;#34; , &amp;#34;geneva&amp;#34; , &amp;#34;swiss&amp;#34; , , sans-serif ; background-color: rgb(255 , 255 , 255)&quot;&gt;AC:22:0B:DB:81:AC&lt;br&gt;&lt;/span&gt;&lt;span style=&quot;color: rgb(54 , 68 , 75) ; font-family: &amp;#34;arial&amp;#34; , &amp;#34;helvetica&amp;#34; , &amp;#34;geneva&amp;#34; , &amp;#34;swiss&amp;#34; , , sans-serif ; background-color: rgb(255 , 255 , 255)&quot;&gt;192.168.0.107&lt;/span&gt;&lt;span style=&quot;color: rgb(54 , 68 , 75) ; font-family: &amp;#34;arial&amp;#34; , &amp;#34;helvetica&amp;#34; , &amp;#34;geneva&amp;#34; , &amp;#34;swiss&amp;#34; , , sans-serif ; background-color: rgb(255 , 255 , 255)&quot;&gt;&lt;br&gt;&lt;/span&gt;" style="text;html=1;strokeColor=none;fillColor=none;align=center;verticalAlign=middle;whiteSpace=wrap;rounded=0;fontFamily=Verdana;" vertex="1" parent="1">
          <mxGeometry x="375" y="195" width="115" height="45" as="geometry" />
        </mxCell>
        <mxCell id="DdCJcNcYymwY5NFWZ9U9-18" value="ПК 2&lt;br&gt;&lt;span style=&quot;color: rgb(54 , 68 , 75) ; font-family: &amp;#34;arial&amp;#34; , &amp;#34;helvetica&amp;#34; , &amp;#34;geneva&amp;#34; , &amp;#34;swiss&amp;#34; , , sans-serif ; background-color: rgb(255 , 255 , 255)&quot;&gt;E0:B9:A5:49:DB:80&lt;br&gt;&lt;/span&gt;&lt;span style=&quot;color: rgb(54 , 68 , 75) ; font-family: &amp;#34;arial&amp;#34; , &amp;#34;helvetica&amp;#34; , &amp;#34;geneva&amp;#34; , &amp;#34;swiss&amp;#34; , , sans-serif ; background-color: rgb(255 , 255 , 255)&quot;&gt;192.168.0.108&lt;/span&gt;&lt;span style=&quot;color: rgb(54 , 68 , 75) ; font-family: &amp;#34;arial&amp;#34; , &amp;#34;helvetica&amp;#34; , &amp;#34;geneva&amp;#34; , &amp;#34;swiss&amp;#34; , , sans-serif ; background-color: rgb(255 , 255 , 255)&quot;&gt;&lt;br&gt;&lt;/span&gt;" style="text;html=1;strokeColor=none;fillColor=none;align=center;verticalAlign=middle;whiteSpace=wrap;rounded=0;fontFamily=Verdana;" vertex="1" parent="1">
          <mxGeometry x="375" y="520" width="115" height="40" as="geometry" />
        </mxCell>
        <mxCell id="DdCJcNcYymwY5NFWZ9U9-19" value="iPhone 1&lt;br&gt;&lt;span style=&quot;color: rgb(54 , 68 , 75) ; font-family: &amp;#34;arial&amp;#34; , &amp;#34;helvetica&amp;#34; , &amp;#34;geneva&amp;#34; , &amp;#34;swiss&amp;#34; , , sans-serif ; background-color: rgb(255 , 255 , 255)&quot;&gt;94:0C:98:BE:D3:89&lt;br&gt;&lt;/span&gt;&lt;span style=&quot;color: rgb(54 , 68 , 75) ; font-family: &amp;#34;arial&amp;#34; , &amp;#34;helvetica&amp;#34; , &amp;#34;geneva&amp;#34; , &amp;#34;swiss&amp;#34; , , sans-serif ; background-color: rgb(255 , 255 , 255)&quot;&gt;192.168.0.100&lt;/span&gt;" style="text;html=1;strokeColor=none;fillColor=none;align=center;verticalAlign=middle;whiteSpace=wrap;rounded=0;fontFamily=Verdana;" vertex="1" parent="1">
          <mxGeometry x="140" y="260" width="100" height="40" as="geometry" />
        </mxCell>
        <mxCell id="DdCJcNcYymwY5NFWZ9U9-20" value="iPhone 2&lt;br&gt;&lt;span style=&quot;color: rgb(54 , 68 , 75) ; font-family: &amp;#34;arial&amp;#34; , &amp;#34;helvetica&amp;#34; , &amp;#34;geneva&amp;#34; , &amp;#34;swiss&amp;#34; , , sans-serif ; background-color: rgb(255 , 255 , 255)&quot;&gt;CA:B2:68:86:81:9F&lt;br&gt;&lt;/span&gt;&lt;span style=&quot;color: rgb(54 , 68 , 75) ; font-family: &amp;#34;arial&amp;#34; , &amp;#34;helvetica&amp;#34; , &amp;#34;geneva&amp;#34; , &amp;#34;swiss&amp;#34; , , sans-serif ; background-color: rgb(255 , 255 , 255)&quot;&gt;192.168.0.103&lt;/span&gt;" style="text;html=1;strokeColor=none;fillColor=none;align=center;verticalAlign=middle;whiteSpace=wrap;rounded=0;fontFamily=Verdana;" vertex="1" parent="1">
          <mxGeometry x="630" y="245" width="110" height="70" as="geometry" />
        </mxCell>
        <mxCell id="DdCJcNcYymwY5NFWZ9U9-21" value="iPhone 3&lt;br&gt;&lt;span style=&quot;color: rgb(54 , 68 , 75) ; font-family: &amp;#34;arial&amp;#34; , &amp;#34;helvetica&amp;#34; , &amp;#34;geneva&amp;#34; , &amp;#34;swiss&amp;#34; , , sans-serif ; background-color: rgb(255 , 255 , 255)&quot;&gt;90:72:40:D0:DC:C8&lt;br&gt;&lt;/span&gt;&lt;span style=&quot;color: rgb(54 , 68 , 75) ; font-family: &amp;#34;arial&amp;#34; , &amp;#34;helvetica&amp;#34; , &amp;#34;geneva&amp;#34; , &amp;#34;swiss&amp;#34; , , sans-serif ; background-color: rgb(255 , 255 , 255)&quot;&gt;192.168.0.102&lt;/span&gt;" style="text;html=1;strokeColor=none;fillColor=none;align=center;verticalAlign=middle;whiteSpace=wrap;rounded=0;fontFamily=Verdana;" vertex="1" parent="1">
          <mxGeometry x="140" y="465" width="100" height="50" as="geometry" />
        </mxCell>
        <mxCell id="DdCJcNcYymwY5NFWZ9U9-22" value="TV&lt;br&gt;&lt;span style=&quot;color: rgb(54 , 68 , 75) ; font-family: &amp;#34;arial&amp;#34; , &amp;#34;helvetica&amp;#34; , &amp;#34;geneva&amp;#34; , &amp;#34;swiss&amp;#34; , , sans-serif ; background-color: rgb(255 , 255 , 255)&quot;&gt;0C:8C:24:65:5D:64&lt;br&gt;&lt;/span&gt;&lt;span style=&quot;color: rgb(54 , 68 , 75) ; font-family: &amp;#34;arial&amp;#34; , &amp;#34;helvetica&amp;#34; , &amp;#34;geneva&amp;#34; , &amp;#34;swiss&amp;#34; , , sans-serif ; background-color: rgb(255 , 255 , 255)&quot;&gt;192.168.0.101&lt;/span&gt;" style="text;html=1;strokeColor=none;fillColor=none;align=center;verticalAlign=middle;whiteSpace=wrap;rounded=0;fontFamily=Verdana;" vertex="1" parent="1">
          <mxGeometry x="620" y="465" width="120" height="55" as="geometry" />
        </mxCell>
        <mxCell id="DdCJcNcYymwY5NFWZ9U9-23" value="Топология - звезда" style="text;html=1;strokeColor=none;fillColor=none;align=center;verticalAlign=middle;whiteSpace=wrap;rounded=0;fontFamily=Verdana;" vertex="1" parent="1">
          <mxGeometry x="270" y="315" width="130" height="20" as="geometry" />
        </mxCell>
        <mxCell id="DdCJcNcYymwY5NFWZ9U9-24" value="Классовая адресация - класс С" style="text;html=1;strokeColor=none;fillColor=none;align=center;verticalAlign=middle;whiteSpace=wrap;rounded=0;fontFamily=Verdana;" vertex="1" parent="1">
          <mxGeometry x="450" y="315" width="200" height="20" as="geometry" />
        </mxCell>
      </root>
    </mxGraphModel>
  </diagram>
</mxfile>
